<?xml version="1.0" encoding="UTF-8"?>
<svg width="1000px" height="364px" viewBox="0 0 1000 364" version="1.1" xmlns="http://www.w3.org/2000/svg" xmlns:xlink="http://www.w3.org/1999/xlink">
    <g id="Logo" stroke="none" stroke-width="1" fill="none" fill-rule="evenodd">
        <g transform="translate(0.000000, -318.000000)" fill-rule="nonzero" id="Group">
            <g transform="translate(0.000000, 318.000000)">
                <path d="M470.458067,363.408744 C380.964622,363.408744 332.824204,303.326991 343.455482,201.003571 L441.758837,201.001372 C436.127485,259.893174 453.979689,286.363363 483.4126,286.363363 C512.838601,286.363363 538.130576,259.767802 552.102287,201.00115 L650.387088,201.002835 C626.603598,303.465586 559.320601,363.408744 470.458067,363.408744 Z M128.458067,363.408744 C38.964622,363.408744 -9.17579569,303.326991 1.45548172,201.003571 L99.7588367,201.001372 C94.1274851,259.893174 111.979689,286.363363 141.4126,286.363363 C170.838601,286.363363 196.130576,259.767802 210.102287,201.00115 L308.387088,201.002835 C284.603598,303.465586 217.320601,363.408744 128.458067,363.408744 Z M991.841633,201.002835 C968.058144,303.465586 900.775147,363.408744 811.912612,363.408744 C722.419167,363.408744 674.27875,303.326991 684.910027,201.003571 L783.213382,201.001372 C777.582031,259.893174 795.434234,286.363363 824.867146,286.363363 C854.293146,286.363363 879.585122,259.767802 893.556833,201.00115 Z M530.45801,-5.68434189e-14 C620.471293,-5.68434189e-14 668.660693,58.2766611 656.916947,163.000545 L558.810251,162.998131 C565.595953,103.313648 548.19809,76.3635635 518.185294,76.3635635 C488.172499,76.3635635 461.313436,103.313648 447.862121,162.998131 L349.724815,163.000521 C373.198498,58.4217888 440.451379,-5.68434189e-14 530.45801,-5.68434189e-14 Z M871.912555,-5.68434189e-14 C961.925839,-5.68434189e-14 1010.11524,58.2766611 998.371492,163.000545 L900.264796,162.998131 C907.050498,103.313648 889.652635,76.3635635 859.63984,76.3635635 C829.627044,76.3635635 802.767981,103.313648 789.316667,162.998131 L691.17936,163.000521 C714.653043,58.4217888 781.905924,-5.68434189e-14 871.912555,-5.68434189e-14 Z" id="Combined-Shape" fill="#000000"></path>
                <path d="M341,2 L314.209,163 L216.649,163 L228.552447,91.75 L226.444056,91.75 L140,138.728516 L153.353147,55.9902344 L251.041958,2 L341,2 Z" id="Combined-Shape" fill="#D90000"></path>
            </g>
        </g>
    </g>
</svg>