<?xml version="1.0" standalone="no"?>
<!DOCTYPE svg PUBLIC "-//W3C//DTD SVG 20010904//EN"
 "http://www.w3.org/TR/2001/REC-SVG-20010904/DTD/svg10.dtd">
<svg version="1.0" xmlns="http://www.w3.org/2000/svg"
 width="1000.000000pt" height="1000.000000pt" viewBox="0 0 1000.000000 1000.000000"
 preserveAspectRatio="xMidYMid meet">
<metadata>
Created by potrace 1.11, written by Peter Selinger 2001-2013
</metadata>
<g transform="translate(0.000000,1000.000000) scale(0.100000,-0.100000)"
fill="#000000" stroke="none">
<path d="M5138 6815 c-2 -2 -30 -6 -63 -9 -33 -3 -71 -8 -85 -11 -14 -3 -36
-7 -50 -9 -79 -12 -255 -67 -358 -112 -29 -13 -55 -23 -57 -24 -3 0 -18 -8
-34 -18 -16 -9 -58 -34 -94 -54 -121 -70 -292 -214 -397 -334 -97 -111 -207
-279 -284 -430 -31 -61 -56 -114 -56 -118 0 -3 -9 -25 -20 -49 -29 -64 -103
-285 -114 -343 -3 -12 -9 -39 -15 -60 -6 -22 -11 -42 -11 -46 0 -5 220 -8 489
-8 l489 0 22 83 c25 93 65 218 85 262 30 67 80 163 106 203 16 24 29 45 29 47
0 8 43 57 95 109 104 103 225 158 353 158 90 1 120 -5 187 -36 58 -28 116 -81
152 -143 32 -55 71 -167 78 -224 3 -24 7 -55 10 -69 8 -37 8 -247 0 -324 l-7
-66 491 0 491 0 1 23 c1 12 3 36 5 52 8 61 10 360 3 414 -4 31 -10 79 -14 106
-14 127 -70 306 -137 440 -164 323 -493 536 -908 584 -27 4 -379 9 -382 6z"/>
<path d="M8520 6810 c-30 -4 -77 -10 -105 -14 -227 -30 -511 -145 -708 -288
-98 -71 -113 -83 -208 -178 -262 -262 -433 -575 -559 -1024 -16 -60 -30 -111
-30 -113 0 -2 221 -2 492 -1 l491 3 24 85 c13 47 25 92 27 100 12 46 81 219
108 268 82 152 204 291 303 344 76 41 179 65 258 62 228 -10 357 -166 396
-477 8 -66 6 -292 -3 -349 l-6 -38 490 0 490 0 7 28 c4 15 8 133 8 262 -1 229
-2 246 -40 442 -16 82 -88 265 -138 353 -149 256 -441 457 -742 510 -16 2 -41
7 -55 10 -14 3 -41 8 -60 11 -55 9 -379 12 -440 4z"/>
<path d="M2437 6760 c-37 -21 -100 -57 -140 -78 -76 -41 -123 -68 -247 -137
-41 -23 -102 -57 -135 -74 -33 -18 -87 -48 -120 -66 -33 -19 -106 -60 -162
-90 -66 -36 -103 -62 -104 -73 0 -9 -2 -26 -4 -37 -9 -48 -24 -144 -30 -185
-3 -25 -15 -94 -25 -155 -10 -60 -21 -128 -25 -150 -3 -23 -7 -50 -9 -60 -3
-17 -18 -108 -31 -192 -2 -13 -1 -23 2 -23 4 0 58 28 122 63 64 35 123 66 131
70 8 4 33 18 55 30 53 30 176 97 390 212 50 27 104 57 120 67 57 34 64 27 49
-49 -7 -38 -15 -88 -19 -113 -3 -25 -8 -52 -10 -60 -2 -8 -7 -35 -10 -60 -4
-25 -10 -63 -15 -85 -5 -22 -11 -60 -15 -85 -3 -25 -10 -70 -15 -100 -6 -30
-13 -74 -16 -97 l-6 -43 485 0 c454 0 486 1 491 18 3 9 12 62 21 117 9 55 18
111 20 125 14 86 67 400 71 425 2 17 9 55 14 85 5 30 12 69 14 85 3 17 12 73
21 125 9 52 18 109 21 125 2 17 6 41 9 55 3 14 7 41 10 60 3 19 7 46 10 60 3
14 7 39 9 55 3 17 8 45 11 63 12 71 15 93 20 125 3 17 8 44 11 60 l6 27 -454
0 -453 0 -68 -40z"/>
<path d="M8 4763 c-5 -153 -3 -404 4 -447 4 -28 10 -69 12 -91 11 -102 62
-275 113 -384 109 -236 301 -429 529 -532 70 -31 194 -73 249 -84 49 -9 137
-24 180 -30 51 -7 327 -7 380 0 100 13 124 17 192 31 134 27 287 81 403 143
193 102 270 159 431 320 201 203 356 448 464 736 20 55 41 109 45 120 12 27
70 238 70 253 0 9 -114 12 -489 12 l-489 0 -7 -27 c-5 -16 -10 -36 -12 -46 -7
-39 -85 -261 -110 -315 -58 -124 -128 -228 -202 -302 -90 -90 -173 -136 -282
-154 -221 -37 -387 74 -458 308 -31 101 -36 151 -36 354 l0 182 -492 0 -493 0
-2 -47z"/>
<path d="M3427 4753 c-5 -70 -1 -440 6 -468 3 -11 10 -54 17 -95 59 -357 249
-654 525 -823 110 -67 287 -132 415 -152 19 -3 46 -7 60 -10 103 -20 374 -23
480 -6 36 6 81 13 100 15 47 6 218 51 272 72 567 214 960 679 1162 1376 l43
148 -493 0 -493 0 -11 -42 c-49 -197 -135 -403 -225 -537 -141 -210 -361 -313
-555 -261 -176 47 -287 218 -314 480 -8 75 -8 292 -1 333 l5 27 -494 0 -494 0
-5 -57z"/>
<path d="M6849 4798 c0 -7 -3 -29 -5 -48 -19 -150 -4 -439 31 -610 50 -251
184 -503 339 -640 16 -14 34 -30 40 -35 30 -27 95 -75 129 -94 20 -11 52 -29
70 -39 85 -49 295 -115 403 -127 28 -3 61 -8 75 -10 37 -8 307 -8 369 -1 336
39 608 145 855 332 108 81 206 178 320 315 105 126 241 367 318 564 37 97 100
293 116 363 l9 42 -492 0 -493 0 -13 -57 c-21 -95 -89 -282 -136 -377 -133
-267 -316 -414 -519 -418 -149 -3 -258 54 -337 176 -77 119 -103 250 -102 509
l1 167 -488 0 c-384 0 -489 -3 -490 -12z"/>
</g>
</svg>
