<?xml version="1.0" encoding="UTF-8"?>
<svg width="56px" height="36px" viewBox="0 0 56 36" version="1.1" xmlns="http://www.w3.org/2000/svg" xmlns:xlink="http://www.w3.org/1999/xlink">
    <!-- Generator: Sketch 62 (91390) - https://sketch.com -->
    <title>Group</title>
    <desc>Created with Sketch.</desc>
    <g id="Page-1" stroke="none" stroke-width="1" fill="none" fill-rule="evenodd">
        <g id="Group" transform="translate(1.000000, 1.000000)" stroke="#222222">
            <line x1="33.12" y1="33.12" x2="3.72" y2="33.12" id="Path" stroke-width="3.6" stroke-linecap="round"></line>
            <path d="M8.88,25.32 C7.8,26.52 10.08,27.24 11.88,26.04 L49.2,7.32 C52.08,5.28 53.4,4.32 54.24,1.32 C54.48,-0.48 48.72,5.689893e-16 44.88,0.48 C43.08,0.6 40.8,1.68 39.84,2.4 L33.12,6.6 L33.24,6.48 L12.96,2.76 C11.28,2.4 10.08,2.16 8.52,2.64 C7.32,3.24 6.36,3.84 5.28,4.8 L19.92,13.44 C20.4,13.8 20.52,14.28 20.04,14.52 L14.76,17.76 L5.76,15.96 C4.56,15.72 3.6,15.48 2.4,15.96 C1.44,16.44 0.72,17.04 0,17.76 L8.88,25.32 Z" id="Path" stroke-width="1.2" fill="#222222" stroke-linejoin="round"></path>
        </g>
    </g>
</svg>